<svg xmlns="http://www.w3.org/2000/svg" xml:space="preserve" viewBox="0 0 1080 1080"><path d="M0-1.547C1.059-.524 1.773 0 1.773 0A92 92 0 0 1 0-1.547" transform="translate(444.119 982.257)scale(2.08323)"/><path d="M0 33.508a.423.423 0 0 1-.055-.826c.19-.054 19.432-5.517 28.795-10.651 4.298-2.354 16.85-7.681 24.956-11.278 9.677-4.295 14.701-6.717 14.867-6.788L74.962.122c.192-.13.612.057.422.193L68.973 4.7c-.384.171-30.436 12.927-39.829 18.071C19.701 27.95.37 33.442.175 33.497a.4.4 0 0 1-.175.011" transform="translate(368.719 428.729)scale(2.08323)"/><path d="M0 10.396a.423.423 0 0 1-.063-.821C21.443 3.019 36.106 1.042 44.626.539c9.266-.547 13.384.451 13.55.492a.427.427 0 0 1 .31.512.43.43 0 0 1-.512.309c-.087-.027-5.234-1.846-17.039-.738-9.286.871-22.74 3.777-40.754 9.267a.4.4 0 0 1-.181.015" transform="translate(519.908 449.329)scale(2.08323)"/><path d="M0 348.896s-40.668 14.333-52.668 53.333c0 0-25.332 18.333-47 17.667-21.666-.667-99-20-137.666-63.334 0 0-.999-53.334-4.666-69.666-3.667-16.334-6.667-32.334-6.667-32.334l.667-6.666s4-4.334.333-6.667l-.333-4s5.666.999 5.333-4.333c-.333-5.334-6-6.334-6-6.334v-9.333s7.333-2 7.333-8-2.333-3.333-2.333-7.667-5.667-4.666-5.667-4.666l-.666-10.334s3.333 1.667 9-.666 16-3 16-3l11 .333s0-57 10.333-73.333l-31.333-.333s.333-18.001-4-21.667l-.667-32s4.666-9.667 10.333-13c0 0 4-36 3.667-44.333-.333-8.334-5-16.667-5-16.667l1.333-37.333s7.667-13.667 19.334-14 53.333 11.666 73 23l1 2.333s.666 2.333 3.666 2.333 9-1 12.334-.333c3.332.667 48 30 48 30s.332 28 1.332 32L-51 98.563s25.334-24.334 28.666-36.667c0 0 25.666 102.333 19.334 163.333 0 0-3.666 42.333 8.666 69 0 0-6-20.999 10.334-42.667l4.666 30.334s11-8.334 11.334-30.334c0 0 5 38-32 97.334M-244.001 92.229c1.84 0 3.333 3.58 3.333 20.333 0 16.752-1.493 40.333-3.333 40.333s-3.333-23.581-3.333-40.333c0-16.753 1.492-20.333 3.333-20.333M34.732 237.634c-5.632-23.283-11.699-46.463-17.783-69.632-4.775-18.184-9.265-36.473-14.961-54.373-5.552-17.459-12.527-34.462-18.752-51.711-1.66-4.597-2.871-9.357-4.259-14.052-4.575-15.467-9.116-30.944-13.715-46.403-2.252-7.567-6.891-13.217-13.948-16.815-8.156-4.156-16.38-8.178-24.478-12.444-36.086-19.808-73.262-29.249-78.019-30.596-17.447-4.94-35.265-8.602-52.619-13.824-9.681-2.913-16.749.7-22.323 6.966-15.333 17.234-26.95 37.074-28.797 60.293-1.697 21.325-.314 42.907-.033 64.372.265 20.14 1.113 40.274 1.25 60.414.175 25.477-.426 50.961-.103 76.434.288 22.639 2.808 55.633 2.808 78.883-2.5 30.5-4.25 43.75 1 68.5 1.298 6.121 7.5 47.352 133.25 78 8 1.75 23.131 2.379 31.5-.5 10.295-3.543 41.5-20.5 45.887-24.227 7.89-6.701 16.697-12.574 23.478-20.253 6.289-7.122 11.742-15.483 16.635-23.77 1.551-2.627 13-22.5 19.25-36 2.5-5.5 11.402-33.15 12.033-32.977 1.215-2.537 3-4.959 3.547-7.63 2.639-12.914 2.231-25.928-.848-38.655" transform="translate(689.08 178.312)scale(2.08323)"/><path d="M0-3.209c-.061-.077-.129-.152-.191-.229A9.8 9.8 0 0 1 .751.229C.771-1.006.539-2.157 0-3.209" transform="translate(645.234 447.865)scale(2.08323)"/><path d="M-.678-.61a119.123 119.123 0 0 0 0 1.939A152 152 0 0 1-.801-.819c.003-.232.148 0 .123.209" transform="scale(2.08324 -2.08324)rotate(74.745 321.988 61.014)"/><path d="m0-.081.019.021C.078 0 .051-.03 0-.081" transform="translate(567.259 577.69)scale(2.08323)"/><path d="M-.238-.248a.5.5 0 0 0-.01.097c.002.03.008.373.01.985-.059-.839-.105-1.31-.107-1.346-.006-.232.143.076.107.264" transform="scale(2.08323 -2.08323)rotate(70.392 334.511 89.391)"/><path d="M-.874-3.157a42 42 0 0 0 4.283-5.039A35.7 35.7 0 0 1-.874-2.95C-4.503.717-9.062 4.046-14.176 7.072-8.055 3.302-3.809-.191-.874-3.157" transform="scale(2.08323 -2.08323)rotate(36.925 440.639 332.808)"/><path d="M0-119.086c4.119-2.602 1.868-9.421 1.868-9.421s2.317-.01 2.75 2.375c.133 3.056-1.381 5.271-3 6.625-.168.14 6.482 4.619 16.25 9.125 7.866 3.629 17.996 7.109 26.375 9.625 15.503 4.657 26.53 1.4 26.375 1.5-.148.096-9.25 4.269-27-.75-8.013-2.266-18.077-5.618-26.375-9.5C7.435-114.095 0-119.086 0-119.086m-20.226-35.046c.827-.149 1.688-.235 2.438-.125.367.054 1.349.375 1.594.438-.561.956-1.142 1.983-1.166 2.838-.226-.342-1.547-1.755-2.866-3.151m-11.456 37.765c-.05 2.268-.481 14.868-.924 15.936 0 0-1.338-13.142-.469-16.141.869-3.002 3.084-4.528 6.812-6.679 0 0-5.372 4.615-5.419 6.884M-11.578-54.8s-3.909 17.271-7.635 34.171a56 56 0 0 1-2.945 2.032c-.04-2.164-.062-4.481-.048-6.97.064-19.301.756-34.883.756-34.883s-2.82-11.297-7.533-19.14zM-21.805-8.815a260 260 0 0 1-.334-9.134 25 25 0 0 0 2.769-1.973c-.841 3.807-1.662 7.567-2.435 11.107m-7.732-6.027c1.234-.294 3.209-.931 5.395-2.012.058 6.271.169 10.87.344 11.537.07.287.169.801.283 1.449-1.203-1.748-3.541-6.066-6.022-10.974m-8.561-19.467s-8.636-30.501-10.778-36.256c0 0 6.837-36.338 6.307-37.802 0 0 1.397-2.249 1.416.529.018 2.775 2.526 6.771 2.526 6.771s-.895 6.805.169 9.732c1.062 2.934 8.635 26.879 14.759 33.115-.407 6.209-.561 27.203-.446 40.825-1.955 1.101-3.954 1.966-5.599 2.138-3.974-7.899-8.175-17.055-8.354-19.052m7.19 19.054c-4.736-.696-12.429-2.537-12.429-2.537s-9.586-7.382-12.251-7.634l-20.678-24.806s-3.682-28.138-6.405-33.803c0 0-1.05-1.581.563-1.909 1.614-.331 32.67-20.943 33.296-23.267l.628-2.329s1.52-1.624 2.129.028c.611 1.655-.88 5.988-.88 5.988s-1.831 4.71-2.138 6.797c-.307 2.09-3.327 24.55-2.496 25.669.833 1.118.925 2.41.925 2.41s.05 2.567.725 2.81c.677.244 8.79 30.173 8.767 31.306-.024 1.134.194 1.592 1.127 2.011.936.426 8.702 18.211 8.702 18.211s.167.406.444 1.059zm-9.247-112.175c-2.262 2.859-3.263 10.116-3.407 11.439-.001.038-.001.125-.005.151-.019.133-.017.059.005-.151.008-.112.017-.222.017-.434.01-2.559-.471-11.857-.471-11.857zm-18.285-21.738c-.951 3.232-3.498 5.326-5.694 4.682-2.196-.645-3.206-3.784-2.257-7.016.948-3.229 3.496-5.324 5.692-4.678 2.196.642 3.206 3.782 2.259 7.012m150.849 18.286c-19.541 13.992-40.822 16.237-49.294 15.203-6.866-.841-12.771-2.999-14.837-3.816-9.704-4.524-21.412-9.929-26.506-10.588-8.096-1.049-17.912-4.91-17.898-7.895.009-2.1-.26-7.075-.66-10.253.707 1.491 1.77 2.44 1.8 2.463 7.842 6.461 17.155 10.524 27.67 12.071l.006.001c3.12.459 6.789.601 9.928.627 2.985 3.349 5.34 7.276 7.926 12.026a.41.41 0 0 0 .31.218.423.423 0 0 0 .431-.621 65.6 65.6 0 0 0-8.046-11.616c5.816-.041 12.085-.73 17.755-1.965 13.125 8.175 20.782 16.003 20.904 16.126a.45.45 0 0 0 .238.117c.078.01.253.175.34.26-.28-.293-7.963-8.774-20.424-16.791 4.465-1.053 8.829-2.437 13.05-4.051 13.409 4.931 25.329 8.376 29.748 9.605a1418 1418 0 0 1-28.593-10.082 113 113 0 0 0 14.718-7.128c12.615 2.668 21.937 5.857 24.802 6.888-3.112-1.363-11.902-4.964-23.703-7.513 5.041-2.982 9.611-6.22 13.518-9.528 2.141.822 3.302 1.466 3.352 1.496a.43.43 0 0 0 .577-.149.42.42 0 0 0-.147-.579c-.098-.058-1.125-.64-3.027-1.407.32-.276.666-.55.975-.826 2.791 1.815 5.38 3.896 7.64 6.353.037.037 3.476 2.949 4.722 6.996-.967-4.352-3.957-7.429-4.11-7.58-1.971-2.141-4.492-4.316-7.62-6.36 3.221-2.945 5.955-5.899 7.98-8.722 3.358-4.694 4.949-8.971 4.722-12.63-.058 3.45-2.142 7.571-5.41 12.139-2.023 2.828-4.772 5.789-8.008 8.741-11.043-6.92-29.679-12.059-61.093-8.263a260 260 0 0 0-9.027 1.283c25.059-17.066 43.843-23.171 54.813-24.687 12.003-1.657 17.98 1.48 18.037 1.503a.413.413 0 0 0 .555-.22.42.42 0 0 0-.221-.554c-.244-.106-6.265-2.619-18.463-.955-5.39.738-13.872 2.568-23.031 6.22.343-1.421 3.748-6.494 4.754-7.218.19-.137-.453-.107-.593.08-.413.538-5.195 7.404-5.018 7.475-9.669 3.932-20.169 9.892-33.074 18.754-19.47 3.389-34.526 8.494-34.704 8.556a.42.42 0 1 0 .273.796c.77-.264 71.166-23.952 106.144-2.172-.359.317-.754.634-1.128.95-2.918-1.098-7.458-2.449-13.792-3.262-10.693-1.353-28.964-1.244-53.193 6.944-5.27-2.011-11.59-2.968-16.518-3.427 4.329-1.286 15.043-5.028 28.847-6.845 11.608-1.529 25.478-1.519 38.822.708l.011.002a.43.43 0 0 0 .477-.349.427.427 0 0 0-.349-.487c-.604-.1-1.201-.193-1.805-.282-31.637-4.653-64.284 5.643-68.52 7.047-3.153-.216-5.342-.219-5.608-.219a.42.42 0 0 0-.42.424.42.42 0 0 0 .423.42c.2-.002 19.834.004 29.148 6.174 4.421 2.926 7.055 4.83 8.983 6.22 2.214 1.597 3.323 2.399 4.862 3.094a.417.417 0 0 0 .555-.21.42.42 0 0 0-.209-.558c-1.459-.662-2.55-1.445-4.71-3.01a248 248 0 0 0-9.013-6.241c-.998-.66-2.116-1.235-3.295-1.764 15.195-5.069 27.993-7.604 38.148-7.907 12.908-.385 21.621 2.461 26.398 4.171-3.994 3.347-8.672 6.615-13.832 9.606-10.026-2.105-22.074-3.876-34.662-3.974a.426.426 0 0 0-.429.42.42.42 0 0 0 .419.426c12.135.095 23.774 1.744 33.561 3.751a112 112 0 0 1-14.68 6.959c-8.535-3.15-17.649-6.898-25.794-11.06a.42.42 0 0 0-.565.183.424.424 0 0 0 .181.567c7.896 4.038 16.701 7.685 25.015 10.777-4.163 1.549-8.466 2.865-12.863 3.861-6.955-4.4-15.284-8.892-24.631-12.387-.213-.077-.694.087-.773.305-.084.215.186.778.407.859 8.824 3.299 17.171 7.413 23.874 11.516a86.5 86.5 0 0 1-17.43 1.756c-16.238-18.08-35.993-17.871-36.228-17.867-.235.01-.48.47-.47.701.007.233.201.41.435.407.234-.01 19.628-.369 35.504 16.773-2.85-.055-6.098-.234-8.93-.65l-.006-.001c-10.362-1.525-19.532-5.524-27.251-11.881-.161-.136-3.847-3.396-1.122-7.296a.423.423 0 0 0-.205-.639c-.031-.01-.68-.235-1.614-.371-1.684-.249-4.729-.257-6.219 2.478-1.353 2.479-8.492 4.983-12.523 4.39-.911-.134-2.044-.495-2.262-1.451-.715-3.12-1.603-7.004 11.282-13.847.167-.091 17.326-9.199 38.972-17.499 14.815-5.682 34.031-12.382 51.058-14.266-11.981 1.111-28.626 4.759-51.36 13.476-21.693 8.321-38.897 17.452-39.068 17.543-.47.249-.886.488-1.32.727-1.765-1.824-6.46-5.23-15.819-2.904-12.403 3.084-8.981 13.189-8.981 13.189l-2.813 1.72s1.149-5.878-4.102-6.437c-5.254-.559-7.656 5.135-7.656 5.135s-.172.388-.416 1.02c-.309-.516-.835-1.628-.754-3.221.124-2.426-.077-6.732 17.091-17.543 0 0-24.121 10.513-16.827 22.144a30 30 0 0 0-.767 2.772c-.573-.313-1.47-.944-2.185-2.193-1.204-2.113-4.843-6.927 4.933-23.993 0 0-15.337 19.839-2.957 27.249-.603 3.39-.458 7.169 2.685 8.606.182.084.314.112.486.185-.225.642-.662 1.97-.433 3.308.292 1.708 2.25 3 4.912 3.373.641.09 1.13.127 1.421-.289 0 0-5.458-.166-5.541-3.625-.024-.977.181-1.917.548-2.424.521.182.967.286 1.398.37-.196.97-1.363 3.929 2.137 4.929 0 0 .336-.315-.5-.709-1.417-.666-1.426-2.251-.875-4.125 1.699 0 3.54-2.043 4.102-3.706.756-2.237 4.436-4.043 4.436-4.043l2.382 1.202s-.282 10.629 1.081 12.963c1.365 2.336-1.277 13.041-.626 14.418.651 1.374 1.898 2.231.7 3.943-2.163 3.095-29.801 15.463-32.228 24.706 0 0-1.027 2.625-.436 4.417.59 1.795 4.865 29.31 4.974 31.459.111 2.152 1.782 2.398 1.782 2.398s20.334 23.759 20.87 23.979c.534.222 11.672 7.692 11.672 7.692s12.807 2.727 14.522 2.571c1.483 3.408 4.985 10.983 7.351 12.344.007.043.015.084.022.133-1.628 7.637-2.73 13.121-2.63 13.537.356 1.471-16.007 29.509-17.765 31.811-1.762 2.301-10.332 14.125-12.926 16.305-2.595 2.178-10.666 8.675-12.461 9.265-1.792.588-14.15 5.315-13.996 6.192.155.875 12.555-4.124 14.669-4.953 2.116-.829 12.695-8.949 14.335-10.413 1.639-1.465 10.403-12.696 11.805-14.481 1.399-1.783 17.61-32.685 18.487-32.845.878-.152 1.679-1.743 1.679-1.743s.166-.774.445-2.093c.277 1.649.529 2.932.709 3.436.272.768 1.644 5.107 4.006 13.392.992 3.502 1.532 7.713 3.26 12.644 2.255 6.435 3.875 16.143 7.291 23.69 2.64 5.834 6.818 10.056 9.693 12.624-2.102-2.025-5.683-6.159-8.555-13.097-3.293-7.942-6.071-18.626-9.04-30.67-2.098-8.482-4.481-17.739-6.356-26.731.207-.956.424-1.973.658-3.082 2.129 2.365 4.206 5.239 5.606 5.794 2.115.845 6.91 3.79 8.013 4.272 1.101.485 13.642 3.715 19.983 1.235 0 0-13.246.824-18.832-1.813-5.587-2.635-9.191-4.977-9.191-4.977s-2.9-2.985-5.394-5.391c3.834-18.035 11.089-52.76 10.957-56.133-.075-2.018-2.897-9.318-7.018-16.113-5.238-8.631-12.03-16.849-12.03-16.849S1.741-69.914 6.516-69.494C8.694-62.06 15.56-4.292 17.208-2.912c1.646 1.38 1.823 1.121 2.098 3.153.268 2.032 2.885 33.571 2.811 36.975-.074 3.403-.08 19.902-.888 21.491-.799 1.589 1.873 4.688 2.385-8.469.514-13.152.441-15.586.056-17.775-.391-2.193-2.212-33.325-2.885-34.565-.672-1.237-.583-2.787-.874-4.68-.159-1.027-2.62-17.118-4.797-32.196 0 0 2.924 6.74 2.972 9.307.048 2.569 3.415 4.344 3.415 4.344S33.339-7.156 34.493-4.851s3.519.731 2.033-.766c-1.487-1.501-13.827-20.599-14.595-22.634-.769-2.032-9.23-28.02-9.23-28.02-.628-4.814-1.019-8.232-.968-9.043.235-3.521-2.626-5.363-3.55-7.776-.926-2.413-1.608-5.501-5.122-7.726-3.512-2.223-19.585-13.834-31.864-14.503 0 0 11.563-19.636 7.718-28.31 0 0 1.647-3.456 3.628-1.456 1.983 1.996 4.878 4.557 9.296 5.491 4.414.934 16.776 9.725 25.282 12.823 8.506 3.101 46.919 17.572 54.178 9.821 7.255-7.755-3.798-10.946-7.653-11.796-3.86-.852-15.158-2.375-22.055-4.812-.862-.304-2.004-.774-3.355-1.364l4.729.357c11.283 1.22 30.365-2.512 50.098-16.647 3.204-2.293 5.305-4.852 6.285-7.634-1.224 2.854-3.929 5.809-6.939 7.964" transform="translate(437.108 824.433)scale(2.08323)"/><path d="M0 9.075c-.035-.074-.063-.15-.102-.224C-3.314 4.752-7.83 1.793-13.561 0-7.862 1.987-3.066 5.28 0 9.075" transform="translate(644.835 421.797)scale(2.08323)"/><path d="M.28.415a11.1 11.1 0 0 0 2.344-1.613C1.886-.445 1.098.165.28.584c-1.113.572-2.286.851-3.444.956A12 12 0 0 0 .28.415" transform="matrix(.7907 1.92734 1.92734 -.7907 644.305 529.18)"/><path d="M470.559 315.451h9.31c4.256 0 7.41-2.888 7.41-7.334 0-3.42-1.9-6.004-4.522-6.726v-.076c2.052-.988 3.458-2.926 3.458-5.814 0-4.066-2.85-6.65-6.726-6.65h-8.93zm1.634-14.744v-10.336h7.22c3.116 0 5.092 2.014 5.092 5.13 0 3.154-2.09 5.206-5.054 5.206zm0 13.224v-11.704h7.486c3.42 0 5.89 2.28 5.89 5.89s-2.28 5.814-5.852 5.814zM491.231 305.989c0 6.042 4.446 9.918 9.804 9.918 4.104 0 6.764-2.622 6.764-2.622l-.874-1.33s-2.242 2.394-5.89 2.394c-4.408 0-8.132-3.154-8.132-8.664h15.238s.076-.608.076-1.026c0-4.598-2.584-8.664-7.752-8.664-4.864 0-9.234 3.572-9.234 9.994m1.786-1.786c.684-4.446 3.914-6.726 7.41-6.726 3.154 0 5.928 2.09 6.118 6.726zM513.575 315.451h1.596v-8.208c0-1.254.152-2.66.57-3.99.836-2.812 2.698-5.32 5.662-5.32.418 0 .874.076.874.076v-1.596s-.532-.114-1.102-.114c-3.002 0-5.13 2.394-6.08 5.32h-.076s.152-.684.152-1.558v-3.61h-1.596zM526.419 315.451h1.596v-9.272c0-.912.076-1.786.304-2.584.95-3.534 4.104-6.042 7.676-6.042 4.256 0 4.674 3.116 4.674 6.422v11.476h1.596v-12.046c0-4.484-1.33-7.41-6.27-7.41-4.75 0-7.41 3.572-8.056 5.358h-.076s.152-.684.152-1.558v-3.344h-1.596zM547.053 313.171s2.28 2.736 6.878 2.736c3.496 0 6.08-2.09 6.08-5.13 0-6.308-10.45-4.826-10.45-9.766 0-2.47 2.128-3.458 4.294-3.458 3.23 0 4.788 1.786 4.788 1.786l.95-1.292s-1.748-2.052-5.624-2.052c-3.23 0-6.08 1.748-6.08 5.13 0 6.194 10.45 4.826 10.45 9.652 0 2.356-2.052 3.572-4.37 3.572-3.762 0-5.89-2.394-5.89-2.394zM565.863 308.573c0 6.308 4.066 7.03 6.042 7.03.57 0 .95-.076.95-.076v-1.482s-.342.076-.874.076c-1.52 0-4.522-.646-4.522-5.662v-10.45h4.978v-1.444h-4.978v-5.396h-1.596v5.396h-2.508v1.444h2.508zM575.667 305.989c0 6.042 4.446 9.918 9.804 9.918 4.104 0 6.764-2.622 6.764-2.622l-.874-1.33s-2.242 2.394-5.89 2.394c-4.408 0-8.132-3.154-8.132-8.664h15.238s.076-.608.076-1.026c0-4.598-2.584-8.664-7.752-8.664-4.864 0-9.234 3.572-9.234 9.994m1.786-1.786c.684-4.446 3.914-6.726 7.41-6.726 3.154 0 5.928 2.09 6.118 6.726zM597.859 291.625h1.9v-2.774h-1.9zm.152 23.826h1.596v-19h-1.596zM606.295 315.451h1.596v-9.272c0-.912.076-1.786.304-2.584.95-3.534 4.104-6.042 7.676-6.042 4.256 0 4.674 3.116 4.674 6.422v11.476h1.596v-12.046c0-4.484-1.33-7.41-6.27-7.41-4.75 0-7.41 3.572-8.056 5.358h-.076s.152-.684.152-1.558v-3.344h-1.596zM470.559 353.451h9.31c4.256 0 7.41-2.888 7.41-7.334 0-3.42-1.9-6.004-4.522-6.726v-.076c2.052-.988 3.458-2.926 3.458-5.814 0-4.066-2.85-6.65-6.726-6.65h-8.93zm1.634-14.744v-10.336h7.22c3.116 0 5.092 2.014 5.092 5.13 0 3.154-2.09 5.206-5.054 5.206zm0 13.224v-11.704h7.486c3.42 0 5.89 2.28 5.89 5.89s-2.28 5.814-5.852 5.814zM492.675 329.625h1.9v-2.774h-1.9zm.152 23.826h1.596v-19h-1.596zM501.111 353.451h1.596v-2.166c0-.988-.152-1.672-.152-1.672h.076s1.786 4.294 6.574 4.294c4.978 0 8.512-3.914 8.512-9.956 0-5.89-3.116-9.956-8.208-9.956-5.244 0-6.878 4.294-6.878 4.294h-.076s.152-.684.152-1.558v-9.88h-1.596zm1.558-9.462c0-5.966 3.268-8.436 6.764-8.436 3.876 0 6.612 3.268 6.612 8.398 0 5.32-3.04 8.398-6.764 8.398-4.446 0-6.612-4.142-6.612-8.36M522.923 349.613c0 3.572 2.622 3.99 3.724 3.99.342 0 .684-.076.684-.076v-1.482s-.266.038-.57.038c-.874 0-2.242-.304-2.242-2.964v-22.268h-1.596zM531.701 329.625h1.9v-2.774h-1.9zm.152 23.826h1.596v-19h-1.596zM538.731 343.837c0 5.662 4.408 10.07 9.842 10.07s9.842-4.408 9.842-10.07c0-5.548-4.408-9.842-9.842-9.842s-9.842 4.294-9.842 9.842m1.672 0c0-4.712 3.648-8.284 8.17-8.284s8.17 3.572 8.17 8.284c0 4.826-3.648 8.512-8.17 8.512s-8.17-3.686-8.17-8.512M563.545 346.573c0 6.308 4.066 7.03 6.042 7.03.57 0 .95-.076.95-.076v-1.482s-.342.076-.874.076c-1.52 0-4.522-.646-4.522-5.662v-10.45h4.978v-1.444h-4.978v-5.396h-1.596v5.396h-2.508v1.444h2.508zM574.869 353.451h1.596v-9.272c0-.912.076-1.786.304-2.584.95-3.534 4.104-6.042 7.676-6.042 4.256 0 4.674 3.116 4.674 6.422v11.476h1.596v-12.046c0-4.484-1.33-7.41-6.27-7.41-4.75 0-7.41 3.572-8.056 5.358h-.076s.152-.684.152-1.558v-10.944h-1.596zM595.807 343.989c0 6.042 4.446 9.918 9.804 9.918 4.104 0 6.764-2.622 6.764-2.622l-.874-1.33s-2.242 2.394-5.89 2.394c-4.408 0-8.132-3.154-8.132-8.664h15.238s.076-.608.076-1.026c0-4.598-2.584-8.664-7.752-8.664-4.864 0-9.234 3.572-9.234 9.994m1.786-1.786c.684-4.446 3.914-6.726 7.41-6.726 3.154 0 5.928 2.09 6.118 6.726zM618.151 353.451h1.596v-10.032h3.382l6.878 10.032h2.014l-7.524-10.754v-.076l6.878-8.17h-2.09l-6.156 7.486h-3.382v-15.086h-1.596z" transform="matrix(1.971 -.67456 .67456 1.971 -480.31 -71.892)"/></svg>