<?xml version="1.0" encoding="UTF-8" standalone="no"?>
<!DOCTYPE svg PUBLIC "-//W3C//DTD SVG 1.1//EN" "http://www.w3.org/Graphics/SVG/1.1/DTD/svg11.dtd">
<svg width="100%" height="100%" viewBox="0 0 1080 1080" version="1.1" xmlns="http://www.w3.org/2000/svg" xmlns:xlink="http://www.w3.org/1999/xlink" xml:space="preserve" xmlns:serif="http://www.serif.com/" style="fill-rule:evenodd;clip-rule:evenodd;stroke-linejoin:round;stroke-miterlimit:2;">
    <g transform="matrix(2.08323,0,0,2.08323,444.119,982.257)">
        <path d="M0,-1.547C1.059,-0.524 1.773,0 1.773,0C1.284,-0.416 0.665,-0.951 0,-1.547" style="fill:rgb(30,28,26);fill-rule:nonzero;"/>
    </g>
    <g transform="matrix(2.08323,0,0,2.08323,368.719,428.729)">
        <path d="M0,33.508C-0.165,33.484 -0.301,33.37 -0.349,33.205C-0.41,32.98 -0.281,32.746 -0.055,32.682C0.135,32.628 19.377,27.165 28.74,22.031C33.038,19.677 45.59,14.35 53.696,10.753C63.373,6.458 68.397,4.036 68.563,3.965L74.962,0.122C75.154,-0.008 75.574,0.179 75.384,0.315L68.973,4.7C68.589,4.871 38.537,17.627 29.144,22.771C19.701,27.95 0.37,33.442 0.175,33.497C0.116,33.514 0.055,33.516 0,33.508" style="fill:rgb(30,28,26);fill-rule:nonzero;"/>
    </g>
    <g transform="matrix(2.08323,0,0,2.08323,519.908,449.329)">
        <path d="M0,10.396C-0.158,10.373 -0.294,10.262 -0.345,10.102C-0.412,9.879 -0.287,9.642 -0.063,9.575C21.443,3.019 36.106,1.042 44.626,0.539C53.892,-0.008 58.01,0.99 58.176,1.031C58.401,1.088 58.541,1.318 58.486,1.543C58.429,1.769 58.192,1.904 57.974,1.852C57.887,1.825 52.74,0.006 40.935,1.114C31.649,1.985 18.195,4.891 0.181,10.381C0.119,10.4 0.059,10.404 0,10.396" style="fill:rgb(30,28,26);fill-rule:nonzero;"/>
    </g>
    <g transform="matrix(2.08323,0,0,2.08323,689.08,178.312)">
        <path d="M0,348.896C0,348.896 -40.668,363.229 -52.668,402.229C-52.668,402.229 -78,420.562 -99.668,419.896C-121.334,419.229 -198.668,399.896 -237.334,356.562C-237.334,356.562 -238.333,303.228 -242,286.896C-245.667,270.562 -248.667,254.562 -248.667,254.562L-248,247.896C-248,247.896 -244,243.562 -247.667,241.229L-248,237.229C-248,237.229 -242.334,238.228 -242.667,232.896C-243,227.562 -248.667,226.562 -248.667,226.562L-248.667,217.229C-248.667,217.229 -241.334,215.229 -241.334,209.229C-241.334,203.229 -243.667,205.896 -243.667,201.562C-243.667,197.229 -249.334,196.896 -249.334,196.896L-250,186.562C-250,186.562 -246.667,188.229 -241,185.896C-235.334,183.562 -225,182.896 -225,182.896L-214,183.229C-214,183.229 -214,126.229 -203.667,109.896L-235,109.563C-235,109.563 -234.667,91.562 -239,87.896L-239.667,55.896C-239.667,55.896 -235.001,46.229 -229.334,42.896C-229.334,42.896 -225.334,6.896 -225.667,-1.437C-226,-9.771 -230.667,-18.104 -230.667,-18.104L-229.334,-55.437C-229.334,-55.437 -221.667,-69.104 -210,-69.437C-198.334,-69.771 -156.667,-57.771 -137,-46.437L-136,-44.104C-136,-44.104 -135.334,-41.771 -132.334,-41.771C-129.334,-41.771 -123.334,-42.771 -120,-42.104C-116.668,-41.437 -72,-12.104 -72,-12.104C-72,-12.104 -71.668,15.896 -70.668,19.896C-69.668,23.896 -51,98.563 -51,98.563C-51,98.563 -25.666,74.229 -22.334,61.896C-22.334,61.896 3.332,164.229 -3,225.229C-3,225.229 -6.666,267.562 5.666,294.229C5.666,294.229 -0.334,273.23 16,251.562L20.666,281.896C20.666,281.896 31.666,273.562 32,251.562C32,251.562 37,289.562 0,348.896M-244.001,92.229C-242.161,92.229 -240.668,95.809 -240.668,112.562C-240.668,129.314 -242.161,152.895 -244.001,152.895C-245.842,152.895 -247.334,129.314 -247.334,112.562C-247.334,95.809 -245.842,92.229 -244.001,92.229M34.732,237.634C29.1,214.351 23.033,191.171 16.949,168.002C12.174,149.818 7.684,131.529 1.988,113.629C-3.564,96.17 -10.539,79.167 -16.764,61.918C-18.424,57.321 -19.635,52.561 -21.023,47.866C-25.598,32.399 -30.139,16.922 -34.738,1.463C-36.99,-6.104 -41.629,-11.754 -48.686,-15.352C-56.842,-19.508 -65.066,-23.53 -73.164,-27.796C-109.25,-47.604 -146.426,-57.045 -151.183,-58.392C-168.63,-63.332 -186.448,-66.994 -203.802,-72.216C-213.483,-75.129 -220.551,-71.516 -226.125,-65.25C-241.458,-48.016 -253.075,-28.176 -254.922,-4.957C-256.619,16.368 -255.236,37.95 -254.955,59.415C-254.69,79.555 -253.842,99.689 -253.705,119.829C-253.53,145.306 -254.131,170.79 -253.808,196.263C-253.52,218.902 -251,251.896 -251,275.146C-253.5,305.646 -255.25,318.896 -250,343.646C-248.702,349.767 -242.5,390.998 -116.75,421.646C-108.75,423.396 -93.619,424.025 -85.25,421.146C-74.955,417.603 -43.75,400.646 -39.363,396.919C-31.473,390.218 -22.666,384.345 -15.885,376.666C-9.596,369.544 -4.143,361.183 0.75,352.896C2.301,350.269 13.75,330.396 20,316.896C22.5,311.396 31.402,283.746 32.033,283.919C33.248,281.382 35.033,278.96 35.58,276.289C38.219,263.375 37.811,250.361 34.732,237.634" style="fill:rgb(30,28,26);"/>
    </g>
    <g transform="matrix(2.08323,0,0,2.08323,645.234,447.865)">
        <path d="M0,-3.209C-0.061,-3.286 -0.129,-3.361 -0.191,-3.438C0.357,-2.301 0.67,-1.075 0.751,0.229C0.771,-1.006 0.539,-2.157 0,-3.209" style="fill:rgb(30,28,26);fill-rule:nonzero;"/>
    </g>
    <g transform="matrix(0.548135,-2.00983,-2.00983,-0.548135,616.912,553.477)">
        <path d="M-0.678,-0.61C-0.68,-0.594 -0.682,-0.578 -0.678,-0.562C-0.68,-0.516 -0.684,0.154 -0.678,1.329C-0.76,-0.01 -0.801,-0.77 -0.801,-0.819C-0.798,-1.051 -0.653,-0.819 -0.678,-0.61" style="fill:rgb(30,28,26);fill-rule:nonzero;"/>
    </g>
    <g transform="matrix(2.08323,0,0,2.08323,567.259,577.69)">
        <path d="M0,-0.081C0.003,-0.078 0.018,-0.061 0.019,-0.06C0.078,0 0.051,-0.03 0,-0.081" style="fill:rgb(30,28,26);fill-rule:nonzero;"/>
    </g>
    <g transform="matrix(0.699081,-1.96243,-1.96243,-0.699081,638.437,532.724)">
        <path d="M-0.238,-0.248C-0.245,-0.215 -0.248,-0.182 -0.248,-0.151C-0.246,-0.121 -0.24,0.222 -0.238,0.834C-0.297,-0.005 -0.343,-0.476 -0.345,-0.512C-0.351,-0.744 -0.202,-0.436 -0.238,-0.248" style="fill:rgb(30,28,26);fill-rule:nonzero;"/>
    </g>
    <g transform="matrix(1.66537,-1.25155,-1.25155,-1.66537,600.65,412.415)">
        <path d="M-0.874,-3.157C0.762,-4.809 2.183,-6.491 3.409,-8.196C2.179,-6.361 0.752,-4.592 -0.874,-2.95C-4.503,0.717 -9.062,4.046 -14.176,7.072C-8.055,3.302 -3.809,-0.191 -0.874,-3.157" style="fill:rgb(30,28,26);fill-rule:nonzero;"/>
    </g>
    <g transform="matrix(2.08323,0,0,2.08323,437.108,824.433)">
        <path d="M0,-119.086C4.119,-121.688 1.868,-128.507 1.868,-128.507C1.868,-128.507 4.185,-128.517 4.618,-126.132C4.751,-123.076 3.237,-120.861 1.618,-119.507C1.45,-119.367 8.1,-114.888 17.868,-110.382C25.734,-106.753 35.864,-103.273 44.243,-100.757C59.746,-96.1 70.773,-99.357 70.618,-99.257C70.47,-99.161 61.368,-94.988 43.618,-100.007C35.605,-102.273 25.541,-105.625 17.243,-109.507C7.435,-114.095 0,-119.086 0,-119.086M-20.226,-154.132C-19.399,-154.281 -18.538,-154.367 -17.788,-154.257C-17.421,-154.203 -16.439,-153.882 -16.194,-153.819C-16.755,-152.863 -17.336,-151.836 -17.36,-150.981C-17.586,-151.323 -18.907,-152.736 -20.226,-154.132M-31.682,-116.367C-31.732,-114.099 -32.163,-101.499 -32.606,-100.431C-32.606,-100.431 -33.944,-113.573 -33.075,-116.572C-32.206,-119.574 -29.991,-121.1 -26.263,-123.251C-26.263,-123.251 -31.635,-118.636 -31.682,-116.367M-11.578,-54.8C-11.578,-54.8 -15.487,-37.529 -19.213,-20.629C-20.079,-19.99 -21.08,-19.29 -22.158,-18.597C-22.198,-20.761 -22.22,-23.078 -22.206,-25.567C-22.142,-44.868 -21.45,-60.45 -21.45,-60.45C-21.45,-60.45 -24.27,-71.747 -28.983,-79.59L-11.578,-54.8ZM-21.805,-8.815C-21.946,-11.431 -22.073,-14.472 -22.139,-17.949C-21.207,-18.517 -20.28,-19.181 -19.37,-19.922C-20.211,-16.115 -21.032,-12.355 -21.805,-8.815M-29.537,-14.842C-28.303,-15.136 -26.328,-15.773 -24.142,-16.854C-24.084,-10.583 -23.973,-5.984 -23.798,-5.317C-23.728,-5.03 -23.629,-4.516 -23.515,-3.868C-24.718,-5.616 -27.056,-9.934 -29.537,-14.842M-38.098,-34.309C-38.098,-34.309 -46.734,-64.81 -48.876,-70.565C-48.876,-70.565 -42.039,-106.903 -42.569,-108.367C-42.569,-108.367 -41.172,-110.616 -41.153,-107.838C-41.135,-105.063 -38.627,-101.067 -38.627,-101.067C-38.627,-101.067 -39.522,-94.262 -38.458,-91.335C-37.396,-88.401 -29.823,-64.456 -23.699,-58.22C-24.106,-52.011 -24.26,-31.017 -24.145,-17.395C-26.1,-16.294 -28.099,-15.429 -29.744,-15.257C-33.718,-23.156 -37.919,-32.312 -38.098,-34.309M-30.908,-15.255C-35.644,-15.951 -43.337,-17.792 -43.337,-17.792C-43.337,-17.792 -52.923,-25.174 -55.588,-25.426L-76.266,-50.232C-76.266,-50.232 -79.948,-78.37 -82.671,-84.035C-82.671,-84.035 -83.721,-85.616 -82.108,-85.944C-80.494,-86.275 -49.438,-106.887 -48.812,-109.211L-48.184,-111.54C-48.184,-111.54 -46.664,-113.164 -46.055,-111.512C-45.444,-109.857 -46.935,-105.524 -46.935,-105.524C-46.935,-105.524 -48.766,-100.814 -49.073,-98.727C-49.38,-96.637 -52.4,-74.177 -51.569,-73.058C-50.736,-71.94 -50.644,-70.648 -50.644,-70.648C-50.644,-70.648 -50.594,-68.081 -49.919,-67.838C-49.242,-67.594 -41.129,-37.665 -41.152,-36.532C-41.176,-35.398 -40.958,-34.94 -40.025,-34.521C-39.089,-34.095 -31.323,-16.31 -31.323,-16.31C-31.323,-16.31 -31.156,-15.904 -30.879,-15.251C-30.888,-15.252 -30.899,-15.253 -30.908,-15.255M-40.155,-127.43C-42.417,-124.571 -43.418,-117.314 -43.562,-115.991C-43.563,-115.953 -43.563,-115.866 -43.567,-115.84C-43.586,-115.707 -43.584,-115.781 -43.562,-115.991C-43.554,-116.103 -43.545,-116.213 -43.545,-116.425C-43.535,-118.984 -44.016,-128.282 -44.016,-128.282L-40.155,-127.43ZM-58.44,-149.168C-59.391,-145.936 -61.938,-143.842 -64.134,-144.486C-66.33,-145.131 -67.34,-148.27 -66.391,-151.502C-65.443,-154.731 -62.895,-156.826 -60.699,-156.18C-58.503,-155.538 -57.493,-152.398 -58.44,-149.168M92.409,-130.882C72.868,-116.89 51.587,-114.645 43.115,-115.679C36.249,-116.52 30.344,-118.678 28.278,-119.495C18.574,-124.019 6.866,-129.424 1.772,-130.083C-6.324,-131.132 -16.14,-134.993 -16.126,-137.978C-16.117,-140.078 -16.386,-145.053 -16.786,-148.231C-16.079,-146.74 -15.016,-145.791 -14.986,-145.768C-7.144,-139.307 2.169,-135.244 12.684,-133.697C12.684,-133.697 12.687,-133.696 12.69,-133.696C15.81,-133.237 19.479,-133.095 22.618,-133.069C25.603,-129.72 27.958,-125.793 30.544,-121.043C30.608,-120.92 30.725,-120.844 30.854,-120.825C30.94,-120.813 31.036,-120.828 31.115,-120.872C31.321,-120.984 31.396,-121.24 31.285,-121.446C28.813,-125.989 26.075,-129.778 23.239,-133.062C29.055,-133.103 35.324,-133.792 40.994,-135.027C54.119,-126.852 61.776,-119.024 61.898,-118.901C61.965,-118.838 62.047,-118.798 62.136,-118.784C62.214,-118.774 62.389,-118.609 62.476,-118.524C62.196,-118.817 54.513,-127.298 42.052,-135.315C46.517,-136.368 50.881,-137.752 55.102,-139.366C68.511,-134.435 80.431,-130.99 84.85,-129.761C80.371,-131.28 69.057,-135.172 56.257,-139.843C61.457,-141.904 66.393,-144.332 70.975,-146.971C83.59,-144.303 92.912,-141.114 95.777,-140.083C92.665,-141.446 83.875,-145.047 72.074,-147.596C77.115,-150.578 81.685,-153.816 85.592,-157.124C87.733,-156.302 88.894,-155.658 88.944,-155.628C89.137,-155.517 89.403,-155.577 89.521,-155.777C89.639,-155.978 89.576,-156.236 89.374,-156.356C89.276,-156.414 88.249,-156.996 86.347,-157.763C86.667,-158.039 87.013,-158.313 87.322,-158.589C90.113,-156.774 92.702,-154.693 94.962,-152.236C94.999,-152.199 98.438,-149.287 99.684,-145.24C98.717,-149.592 95.727,-152.669 95.574,-152.82C93.603,-154.961 91.082,-157.136 87.954,-159.18C91.175,-162.125 93.909,-165.079 95.934,-167.902C99.292,-172.596 100.883,-176.873 100.656,-180.532C100.598,-177.082 98.514,-172.961 95.246,-168.393C93.223,-165.565 90.474,-162.604 87.238,-159.652C76.195,-166.572 57.559,-171.711 26.145,-167.915C23.335,-167.574 19.812,-167.064 17.118,-166.632C42.177,-183.698 60.961,-189.803 71.931,-191.319C83.934,-192.976 89.911,-189.839 89.968,-189.816C90.187,-189.717 90.434,-189.821 90.523,-190.036C90.618,-190.251 90.516,-190.5 90.302,-190.59C90.058,-190.696 84.037,-193.209 71.839,-191.545C66.449,-190.807 57.967,-188.977 48.808,-185.325C49.151,-186.746 52.556,-191.819 53.562,-192.543C53.752,-192.68 53.109,-192.65 52.969,-192.463C52.556,-191.925 47.774,-185.059 47.951,-184.988C38.282,-181.056 27.782,-175.096 14.877,-166.234C-4.593,-162.845 -19.649,-157.74 -19.827,-157.678C-20.048,-157.606 -20.163,-157.364 -20.09,-157.145C-20.014,-156.923 -19.772,-156.807 -19.554,-156.882C-18.784,-157.146 51.612,-180.834 86.59,-159.054C86.231,-158.737 85.836,-158.42 85.462,-158.104C82.544,-159.202 78.004,-160.553 71.67,-161.366C60.977,-162.719 42.706,-162.61 18.477,-154.422C13.207,-156.433 6.887,-157.39 1.959,-157.849C6.288,-159.135 17.002,-162.877 30.806,-164.694C42.414,-166.223 56.284,-166.213 69.628,-163.986C69.631,-163.985 69.635,-163.985 69.639,-163.984C69.862,-163.952 70.075,-164.108 70.116,-164.333C70.153,-164.564 69.995,-164.781 69.767,-164.82C69.163,-164.92 68.566,-165.013 67.962,-165.102C36.325,-169.755 3.678,-159.459 -0.558,-158.055C-3.711,-158.271 -5.9,-158.274 -6.166,-158.274C-6.401,-158.274 -6.586,-158.084 -6.586,-157.85C-6.583,-157.618 -6.402,-157.428 -6.163,-157.43C-5.963,-157.432 13.671,-157.426 22.985,-151.256C27.406,-148.33 30.04,-146.426 31.968,-145.036C34.182,-143.439 35.291,-142.637 36.83,-141.942C36.865,-141.926 36.905,-141.914 36.943,-141.908C37.126,-141.881 37.306,-141.977 37.385,-142.152C37.484,-142.366 37.388,-142.615 37.176,-142.71C35.717,-143.372 34.626,-144.155 32.466,-145.72C30.531,-147.116 27.884,-149.025 23.453,-151.961C22.455,-152.621 21.337,-153.196 20.158,-153.725C35.353,-158.794 48.151,-161.329 58.306,-161.632C71.214,-162.017 79.927,-159.171 84.704,-157.461C80.71,-154.114 76.032,-150.846 70.872,-147.855C60.846,-149.96 48.798,-151.731 36.21,-151.829C35.973,-151.829 35.784,-151.642 35.781,-151.409C35.778,-151.178 35.956,-150.988 36.2,-150.983C48.335,-150.888 59.974,-149.239 69.761,-147.232C65.187,-144.647 60.263,-142.273 55.081,-140.273C46.546,-143.423 37.432,-147.171 29.287,-151.333C29.09,-151.442 28.829,-151.358 28.722,-151.15C28.616,-150.941 28.7,-150.689 28.903,-150.583C36.799,-146.545 45.604,-142.898 53.918,-139.806C49.755,-138.257 45.452,-136.941 41.055,-135.945C34.1,-140.345 25.771,-144.837 16.424,-148.332C16.211,-148.409 15.73,-148.245 15.651,-148.027C15.567,-147.812 15.837,-147.249 16.058,-147.168C24.882,-143.869 33.229,-139.755 39.932,-135.652C34.346,-134.493 28.213,-133.876 22.502,-133.896C6.264,-151.976 -13.491,-151.767 -13.726,-151.763C-13.961,-151.753 -14.206,-151.293 -14.196,-151.062C-14.189,-150.829 -13.995,-150.652 -13.761,-150.655C-13.527,-150.665 5.867,-151.024 21.743,-133.882C18.893,-133.937 15.645,-134.116 12.813,-134.532C12.81,-134.533 12.807,-134.533 12.807,-134.533C2.445,-136.058 -6.725,-140.057 -14.444,-146.414C-14.605,-146.55 -18.291,-149.81 -15.566,-153.71C-15.489,-153.817 -15.47,-153.954 -15.512,-154.081C-15.554,-154.207 -15.649,-154.306 -15.771,-154.349C-15.802,-154.359 -16.451,-154.584 -17.385,-154.72C-19.069,-154.969 -22.114,-154.977 -23.604,-152.242C-24.957,-149.763 -32.096,-147.259 -36.127,-147.852C-37.038,-147.986 -38.171,-148.347 -38.389,-149.303C-39.104,-152.423 -39.992,-156.307 -27.107,-163.15C-26.94,-163.241 -9.781,-172.349 11.865,-180.649C26.68,-186.331 45.896,-193.031 62.923,-194.915C50.942,-193.804 34.297,-190.156 11.563,-181.439C-10.13,-173.118 -27.334,-163.987 -27.505,-163.896C-27.975,-163.647 -28.391,-163.408 -28.825,-163.169C-30.59,-164.993 -35.285,-168.399 -44.644,-166.073C-57.047,-162.989 -53.625,-152.884 -53.625,-152.884L-56.438,-151.164C-56.438,-151.164 -55.289,-157.042 -60.54,-157.601C-65.794,-158.16 -68.196,-152.466 -68.196,-152.466C-68.196,-152.466 -68.368,-152.078 -68.612,-151.446C-68.921,-151.962 -69.447,-153.074 -69.366,-154.667C-69.242,-157.093 -69.443,-161.399 -52.275,-172.21C-52.275,-172.21 -76.396,-161.697 -69.102,-150.066C-69.367,-149.267 -69.64,-148.307 -69.869,-147.294C-70.442,-147.607 -71.339,-148.238 -72.054,-149.487C-73.258,-151.6 -76.897,-156.414 -67.121,-173.48C-67.121,-173.48 -82.458,-153.641 -70.078,-146.231C-70.681,-142.841 -70.536,-139.062 -67.393,-137.625C-67.211,-137.541 -67.079,-137.513 -66.907,-137.44C-67.132,-136.798 -67.569,-135.47 -67.34,-134.132C-67.048,-132.424 -65.09,-131.132 -62.428,-130.759C-61.787,-130.669 -61.298,-130.632 -61.007,-131.048C-61.007,-131.048 -66.465,-131.214 -66.548,-134.673C-66.572,-135.65 -66.367,-136.59 -66,-137.097C-65.479,-136.915 -65.033,-136.811 -64.602,-136.727C-64.798,-135.757 -65.965,-132.798 -62.465,-131.798C-62.465,-131.798 -62.129,-132.113 -62.965,-132.507C-64.382,-133.173 -64.391,-134.758 -63.84,-136.632C-62.141,-136.632 -60.3,-138.675 -59.738,-140.338C-58.982,-142.575 -55.302,-144.381 -55.302,-144.381L-52.92,-143.179C-52.92,-143.179 -53.202,-132.55 -51.839,-130.216C-50.474,-127.88 -53.116,-117.175 -52.465,-115.798C-51.814,-114.424 -50.567,-113.567 -51.765,-111.855C-53.928,-108.76 -81.566,-96.392 -83.993,-87.149C-83.993,-87.149 -85.02,-84.524 -84.429,-82.732C-83.839,-80.937 -79.564,-53.422 -79.455,-51.273C-79.344,-49.121 -77.673,-48.875 -77.673,-48.875C-77.673,-48.875 -57.339,-25.116 -56.803,-24.896C-56.269,-24.674 -45.131,-17.204 -45.131,-17.204C-45.131,-17.204 -32.324,-14.477 -30.609,-14.633C-29.126,-11.225 -25.624,-3.65 -23.258,-2.289C-23.251,-2.246 -23.243,-2.205 -23.236,-2.156C-24.864,5.481 -25.966,10.965 -25.866,11.381C-25.51,12.852 -41.873,40.89 -43.631,43.192C-45.393,45.493 -53.963,57.317 -56.557,59.497C-59.152,61.675 -67.223,68.172 -69.018,68.762C-70.81,69.35 -83.168,74.077 -83.014,74.954C-82.859,75.829 -70.459,70.83 -68.345,70.001C-66.229,69.172 -55.65,61.052 -54.01,59.588C-52.371,58.123 -43.607,46.892 -42.205,45.107C-40.806,43.324 -24.595,12.422 -23.718,12.262C-22.84,12.11 -22.039,10.519 -22.039,10.519C-22.039,10.519 -21.873,9.745 -21.594,8.426C-21.317,10.075 -21.065,11.358 -20.885,11.862C-20.613,12.63 -19.241,16.969 -16.879,25.254C-15.887,28.756 -15.347,32.967 -13.619,37.898C-11.364,44.333 -9.744,54.041 -6.328,61.588C-3.688,67.422 0.49,71.644 3.365,74.212C1.263,72.187 -2.318,68.053 -5.19,61.115C-8.483,53.173 -11.261,42.489 -14.23,30.445C-16.328,21.963 -18.711,12.706 -20.586,3.714C-20.379,2.758 -20.162,1.741 -19.928,0.632C-17.799,2.997 -15.722,5.871 -14.322,6.426C-12.207,7.271 -7.412,10.216 -6.309,10.698C-5.208,11.183 7.333,14.413 13.674,11.933C13.674,11.933 0.428,12.757 -5.158,10.12C-10.745,7.485 -14.349,5.143 -14.349,5.143C-14.349,5.143 -17.249,2.158 -19.743,-0.248C-15.909,-18.283 -8.654,-53.008 -8.786,-56.381C-8.861,-58.399 -11.683,-65.699 -15.804,-72.494C-21.042,-81.125 -27.834,-89.343 -27.834,-89.343C-27.834,-89.343 1.741,-69.914 6.516,-69.494C8.694,-62.06 15.56,-4.292 17.208,-2.912C18.854,-1.532 19.031,-1.791 19.306,0.241C19.574,2.273 22.191,33.812 22.117,37.216C22.043,40.619 22.037,57.118 21.229,58.707C20.43,60.296 23.102,63.395 23.614,50.238C24.128,37.086 24.055,34.652 23.67,32.463C23.279,30.27 21.458,-0.862 20.785,-2.102C20.113,-3.339 20.202,-4.889 19.911,-6.782C19.752,-7.809 17.291,-23.9 15.114,-38.978C15.114,-38.978 18.038,-32.238 18.086,-29.671C18.134,-27.102 21.501,-25.327 21.501,-25.327C21.501,-25.327 33.339,-7.156 34.493,-4.851C35.648,-2.546 38.012,-4.12 36.526,-5.617C35.039,-7.118 22.699,-26.216 21.931,-28.251C21.162,-30.283 12.701,-56.271 12.701,-56.271C12.073,-61.085 11.682,-64.503 11.733,-65.314C11.968,-68.835 9.107,-70.677 8.183,-73.09C7.257,-75.503 6.575,-78.591 3.061,-80.816C-0.451,-83.039 -16.524,-94.65 -28.803,-95.319C-28.803,-95.319 -17.24,-114.955 -21.085,-123.629C-21.085,-123.629 -19.438,-127.085 -17.457,-125.085C-15.474,-123.089 -12.579,-120.528 -8.161,-119.594C-3.747,-118.66 8.615,-109.869 17.121,-106.771C25.627,-103.67 64.04,-89.199 71.299,-96.95C78.554,-104.705 67.501,-107.896 63.646,-108.746C59.786,-109.598 48.488,-111.121 41.591,-113.558C40.729,-113.862 39.587,-114.332 38.236,-114.922L42.965,-114.565C54.248,-113.345 73.33,-117.077 93.063,-131.212C96.267,-133.505 98.368,-136.064 99.348,-138.846C98.124,-135.992 95.419,-133.037 92.409,-130.882" style="fill:rgb(30,28,26);fill-rule:nonzero;"/>
    </g>
    <g transform="matrix(2.08323,0,0,2.08323,644.835,421.797)">
        <path d="M0,9.075C-0.035,9.001 -0.063,8.925 -0.102,8.851C-3.314,4.752 -7.83,1.793 -13.561,0C-7.862,1.987 -3.066,5.28 0,9.075" style="fill:rgb(30,28,26);fill-rule:nonzero;"/>
    </g>
    <g transform="matrix(0.790704,1.92734,1.92734,-0.790704,644.305,529.18)">
        <path d="M0.28,0.415C1.128,-0.02 1.909,-0.559 2.624,-1.198C1.886,-0.445 1.098,0.165 0.28,0.584C-0.833,1.156 -2.006,1.435 -3.164,1.54C-2.023,1.343 -0.857,0.997 0.28,0.415" style="fill:rgb(30,28,26);fill-rule:nonzero;"/>
    </g>
    <g transform="matrix(1.971,-0.674557,0.674557,1.971,-600.31,-71.8915)">
        <g transform="matrix(1,0,0,1,54.4994,18.6519)">
            <path d="M470.559,315.451L479.869,315.451C484.125,315.451 487.279,312.563 487.279,308.117C487.279,304.697 485.379,302.113 482.757,301.391L482.757,301.315C484.809,300.327 486.215,298.389 486.215,295.501C486.215,291.435 483.365,288.851 479.489,288.851L470.559,288.851L470.559,315.451ZM472.193,300.707L472.193,290.371L479.413,290.371C482.529,290.371 484.505,292.385 484.505,295.501C484.505,298.655 482.415,300.707 479.451,300.707L472.193,300.707ZM472.193,313.931L472.193,302.227L479.679,302.227C483.099,302.227 485.569,304.507 485.569,308.117C485.569,311.727 483.289,313.931 479.717,313.931L472.193,313.931Z" style="fill:rgb(30,28,26);fill-rule:nonzero;"/>
        </g>
        <g transform="matrix(1,0,0,1,54.4994,18.6519)">
            <path d="M491.231,305.989C491.231,312.031 495.677,315.907 501.035,315.907C505.139,315.907 507.799,313.285 507.799,313.285L506.925,311.955C506.925,311.955 504.683,314.349 501.035,314.349C496.627,314.349 492.903,311.195 492.903,305.685L508.141,305.685C508.141,305.685 508.217,305.077 508.217,304.659C508.217,300.061 505.633,295.995 500.465,295.995C495.601,295.995 491.231,299.567 491.231,305.989ZM493.017,304.203C493.701,299.757 496.931,297.477 500.427,297.477C503.581,297.477 506.355,299.567 506.545,304.203L493.017,304.203Z" style="fill:rgb(30,28,26);fill-rule:nonzero;"/>
        </g>
        <g transform="matrix(1,0,0,1,54.4994,18.6519)">
            <path d="M513.575,315.451L515.171,315.451L515.171,307.243C515.171,305.989 515.323,304.583 515.741,303.253C516.577,300.441 518.439,297.933 521.403,297.933C521.821,297.933 522.277,298.009 522.277,298.009L522.277,296.413C522.277,296.413 521.745,296.299 521.175,296.299C518.173,296.299 516.045,298.693 515.095,301.619L515.019,301.619C515.019,301.619 515.171,300.935 515.171,300.061L515.171,296.451L513.575,296.451L513.575,315.451Z" style="fill:rgb(30,28,26);fill-rule:nonzero;"/>
        </g>
        <g transform="matrix(1,0,0,1,54.4994,18.6519)">
            <path d="M526.419,315.451L528.015,315.451L528.015,306.179C528.015,305.267 528.091,304.393 528.319,303.595C529.269,300.061 532.423,297.553 535.995,297.553C540.251,297.553 540.669,300.669 540.669,303.975L540.669,315.451L542.265,315.451L542.265,303.405C542.265,298.921 540.935,295.995 535.995,295.995C531.245,295.995 528.585,299.567 527.939,301.353L527.863,301.353C527.863,301.353 528.015,300.669 528.015,299.795L528.015,296.451L526.419,296.451L526.419,315.451Z" style="fill:rgb(30,28,26);fill-rule:nonzero;"/>
        </g>
        <g transform="matrix(1,0,0,1,54.4994,18.6519)">
            <path d="M547.053,313.171C547.053,313.171 549.333,315.907 553.931,315.907C557.427,315.907 560.011,313.817 560.011,310.777C560.011,304.469 549.561,305.951 549.561,301.011C549.561,298.541 551.689,297.553 553.855,297.553C557.085,297.553 558.643,299.339 558.643,299.339L559.593,298.047C559.593,298.047 557.845,295.995 553.969,295.995C550.739,295.995 547.889,297.743 547.889,301.125C547.889,307.319 558.339,305.951 558.339,310.777C558.339,313.133 556.287,314.349 553.969,314.349C550.207,314.349 548.079,311.955 548.079,311.955L547.053,313.171Z" style="fill:rgb(30,28,26);fill-rule:nonzero;"/>
        </g>
        <g transform="matrix(1,0,0,1,54.4994,18.6519)">
            <path d="M565.863,308.573C565.863,314.881 569.929,315.603 571.905,315.603C572.475,315.603 572.855,315.527 572.855,315.527L572.855,314.045C572.855,314.045 572.513,314.121 571.981,314.121C570.461,314.121 567.459,313.475 567.459,308.459L567.459,298.009L572.437,298.009L572.437,296.565L567.459,296.565L567.459,291.169L565.863,291.169L565.863,296.565L563.355,296.565L563.355,298.009L565.863,298.009L565.863,308.573Z" style="fill:rgb(30,28,26);fill-rule:nonzero;"/>
        </g>
        <g transform="matrix(1,0,0,1,54.4994,18.6519)">
            <path d="M575.667,305.989C575.667,312.031 580.113,315.907 585.471,315.907C589.575,315.907 592.235,313.285 592.235,313.285L591.361,311.955C591.361,311.955 589.119,314.349 585.471,314.349C581.063,314.349 577.339,311.195 577.339,305.685L592.577,305.685C592.577,305.685 592.653,305.077 592.653,304.659C592.653,300.061 590.069,295.995 584.901,295.995C580.037,295.995 575.667,299.567 575.667,305.989ZM577.453,304.203C578.137,299.757 581.367,297.477 584.863,297.477C588.017,297.477 590.791,299.567 590.981,304.203L577.453,304.203Z" style="fill:rgb(30,28,26);fill-rule:nonzero;"/>
        </g>
        <g transform="matrix(1,0,0,1,54.4994,18.6519)">
            <path d="M597.859,291.625L599.759,291.625L599.759,288.851L597.859,288.851L597.859,291.625ZM598.011,315.451L599.607,315.451L599.607,296.451L598.011,296.451L598.011,315.451Z" style="fill:rgb(30,28,26);fill-rule:nonzero;"/>
        </g>
        <g transform="matrix(1,0,0,1,54.4994,18.6519)">
            <path d="M606.295,315.451L607.891,315.451L607.891,306.179C607.891,305.267 607.967,304.393 608.195,303.595C609.145,300.061 612.299,297.553 615.871,297.553C620.127,297.553 620.545,300.669 620.545,303.975L620.545,315.451L622.141,315.451L622.141,303.405C622.141,298.921 620.811,295.995 615.871,295.995C611.121,295.995 608.461,299.567 607.815,301.353L607.739,301.353C607.739,301.353 607.891,300.669 607.891,299.795L607.891,296.451L606.295,296.451L606.295,315.451Z" style="fill:rgb(30,28,26);fill-rule:nonzero;"/>
        </g>
        <g transform="matrix(1,0,0,1,54.4994,18.6519)">
            <path d="M470.559,353.451L479.869,353.451C484.125,353.451 487.279,350.563 487.279,346.117C487.279,342.697 485.379,340.113 482.757,339.391L482.757,339.315C484.809,338.327 486.215,336.389 486.215,333.501C486.215,329.435 483.365,326.851 479.489,326.851L470.559,326.851L470.559,353.451ZM472.193,338.707L472.193,328.371L479.413,328.371C482.529,328.371 484.505,330.385 484.505,333.501C484.505,336.655 482.415,338.707 479.451,338.707L472.193,338.707ZM472.193,351.931L472.193,340.227L479.679,340.227C483.099,340.227 485.569,342.507 485.569,346.117C485.569,349.727 483.289,351.931 479.717,351.931L472.193,351.931Z" style="fill:rgb(30,28,26);fill-rule:nonzero;"/>
        </g>
        <g transform="matrix(1,0,0,1,54.4994,18.6519)">
            <path d="M492.675,329.625L494.575,329.625L494.575,326.851L492.675,326.851L492.675,329.625ZM492.827,353.451L494.423,353.451L494.423,334.451L492.827,334.451L492.827,353.451Z" style="fill:rgb(30,28,26);fill-rule:nonzero;"/>
        </g>
        <g transform="matrix(1,0,0,1,54.4994,18.6519)">
            <path d="M501.111,353.451L502.707,353.451L502.707,351.285C502.707,350.297 502.555,349.613 502.555,349.613L502.631,349.613C502.631,349.613 504.417,353.907 509.205,353.907C514.183,353.907 517.717,349.993 517.717,343.951C517.717,338.061 514.601,333.995 509.509,333.995C504.265,333.995 502.631,338.289 502.631,338.289L502.555,338.289C502.555,338.289 502.707,337.605 502.707,336.731L502.707,326.851L501.111,326.851L501.111,353.451ZM502.669,343.989C502.669,338.023 505.937,335.553 509.433,335.553C513.309,335.553 516.045,338.821 516.045,343.951C516.045,349.271 513.005,352.349 509.281,352.349C504.835,352.349 502.669,348.207 502.669,343.989Z" style="fill:rgb(30,28,26);fill-rule:nonzero;"/>
        </g>
        <g transform="matrix(1,0,0,1,54.4994,18.6519)">
            <path d="M522.923,349.613C522.923,353.185 525.545,353.603 526.647,353.603C526.989,353.603 527.331,353.527 527.331,353.527L527.331,352.045C527.331,352.045 527.065,352.083 526.761,352.083C525.887,352.083 524.519,351.779 524.519,349.119L524.519,326.851L522.923,326.851L522.923,349.613Z" style="fill:rgb(30,28,26);fill-rule:nonzero;"/>
        </g>
        <g transform="matrix(1,0,0,1,54.4994,18.6519)">
            <path d="M531.701,329.625L533.601,329.625L533.601,326.851L531.701,326.851L531.701,329.625ZM531.853,353.451L533.449,353.451L533.449,334.451L531.853,334.451L531.853,353.451Z" style="fill:rgb(30,28,26);fill-rule:nonzero;"/>
        </g>
        <g transform="matrix(1,0,0,1,54.4994,18.6519)">
            <path d="M538.731,343.837C538.731,349.499 543.139,353.907 548.573,353.907C554.007,353.907 558.415,349.499 558.415,343.837C558.415,338.289 554.007,333.995 548.573,333.995C543.139,333.995 538.731,338.289 538.731,343.837ZM540.403,343.837C540.403,339.125 544.051,335.553 548.573,335.553C553.095,335.553 556.743,339.125 556.743,343.837C556.743,348.663 553.095,352.349 548.573,352.349C544.051,352.349 540.403,348.663 540.403,343.837Z" style="fill:rgb(30,28,26);fill-rule:nonzero;"/>
        </g>
        <g transform="matrix(1,0,0,1,54.4994,18.6519)">
            <path d="M563.545,346.573C563.545,352.881 567.611,353.603 569.587,353.603C570.157,353.603 570.537,353.527 570.537,353.527L570.537,352.045C570.537,352.045 570.195,352.121 569.663,352.121C568.143,352.121 565.141,351.475 565.141,346.459L565.141,336.009L570.119,336.009L570.119,334.565L565.141,334.565L565.141,329.169L563.545,329.169L563.545,334.565L561.037,334.565L561.037,336.009L563.545,336.009L563.545,346.573Z" style="fill:rgb(30,28,26);fill-rule:nonzero;"/>
        </g>
        <g transform="matrix(1,0,0,1,54.4994,18.6519)">
            <path d="M574.869,353.451L576.465,353.451L576.465,344.179C576.465,343.267 576.541,342.393 576.769,341.595C577.719,338.061 580.873,335.553 584.445,335.553C588.701,335.553 589.119,338.669 589.119,341.975L589.119,353.451L590.715,353.451L590.715,341.405C590.715,336.921 589.385,333.995 584.445,333.995C579.695,333.995 577.035,337.567 576.389,339.353L576.313,339.353C576.313,339.353 576.465,338.669 576.465,337.795L576.465,326.851L574.869,326.851L574.869,353.451Z" style="fill:rgb(30,28,26);fill-rule:nonzero;"/>
        </g>
        <g transform="matrix(1,0,0,1,54.4994,18.6519)">
            <path d="M595.807,343.989C595.807,350.031 600.253,353.907 605.611,353.907C609.715,353.907 612.375,351.285 612.375,351.285L611.501,349.955C611.501,349.955 609.259,352.349 605.611,352.349C601.203,352.349 597.479,349.195 597.479,343.685L612.717,343.685C612.717,343.685 612.793,343.077 612.793,342.659C612.793,338.061 610.209,333.995 605.041,333.995C600.177,333.995 595.807,337.567 595.807,343.989ZM597.593,342.203C598.277,337.757 601.507,335.477 605.003,335.477C608.157,335.477 610.931,337.567 611.121,342.203L597.593,342.203Z" style="fill:rgb(30,28,26);fill-rule:nonzero;"/>
        </g>
        <g transform="matrix(1,0,0,1,54.4994,18.6519)">
            <path d="M618.151,353.451L619.747,353.451L619.747,343.419L623.129,343.419L630.007,353.451L632.021,353.451L624.497,342.697L624.497,342.621L631.375,334.451L629.285,334.451L623.129,341.937L619.747,341.937L619.747,326.851L618.151,326.851L618.151,353.451Z" style="fill:rgb(30,28,26);fill-rule:nonzero;"/>
        </g>
    </g>
</svg>
