<?xml version="1.0" encoding="UTF-8" standalone="no"?>
<!DOCTYPE svg PUBLIC "-//W3C//DTD SVG 1.1//EN" "http://www.w3.org/Graphics/SVG/1.1/DTD/svg11.dtd">
<svg width="100%" height="100%" viewBox="0 0 300 300" version="1.1" xmlns="http://www.w3.org/2000/svg" xmlns:xlink="http://www.w3.org/1999/xlink" xml:space="preserve" xmlns:serif="http://www.serif.com/" style="fill-rule:evenodd;clip-rule:evenodd;stroke-linejoin:round;stroke-miterlimit:2;">
    <g transform="matrix(1.30685,0,0,1.30685,-46.0442,-49.2022)">
        <g>
            <path d="M200.86,39.286L99.255,39.286L35.906,118.724L58.516,217.774L150.058,261.857L241.598,217.774L264.207,118.724L200.86,39.286ZM213.462,197.122L150.058,227.655L86.651,197.122L70.988,128.51L114.869,73.487L185.245,73.487L229.126,128.51L213.462,197.122Z" style="fill:rgb(44,140,95);fill-rule:nonzero;"/>
            <g>
                <path d="M155.729,131.755C158.797,125.744 161.371,123.78 161.371,123.78L161.371,123.536C161.371,123.536 160.146,123.904 155.729,123.904L121.136,123.904L121.136,105.502L184.069,105.502L184.069,120.468L147.265,193.211L124.94,193.211L155.729,131.755Z" style="fill:rgb(44,140,95);fill-rule:nonzero;"/>
            </g>
        </g>
    </g>
</svg>
